<?xml version="1.0" encoding="UTF-8" standalone="no"?>
<!-- Generated by IcoMoon.io -->

<svg
   xmlns:dc="http://purl.org/dc/elements/1.1/"
   xmlns:cc="http://creativecommons.org/ns#"
   xmlns:rdf="http://www.w3.org/1999/02/22-rdf-syntax-ns#"
   xmlns:svg="http://www.w3.org/2000/svg"
   xmlns="http://www.w3.org/2000/svg"
   xmlns:sodipodi="http://sodipodi.sourceforge.net/DTD/sodipodi-0.dtd"
   xmlns:inkscape="http://www.inkscape.org/namespaces/inkscape"
   version="1.1"
   width="24"
   height="24"
   viewBox="0 0 24 24"
   id="svg2"
   inkscape:version="0.48.4 r9939"
   sodipodi:docname="help.svg">
  <metadata
     id="metadata12">
    <rdf:RDF>
      <cc:Work
         rdf:about="">
        <dc:format>image/svg+xml</dc:format>
        <dc:type
           rdf:resource="http://purl.org/dc/dcmitype/StillImage" />
      </cc:Work>
    </rdf:RDF>
  </metadata>
  <defs
     id="defs10" />
  <sodipodi:namedview
     pagecolor="#ffffff"
     bordercolor="#666666"
     borderopacity="1"
     objecttolerance="10"
     gridtolerance="10"
     guidetolerance="10"
     inkscape:pageopacity="0"
     inkscape:pageshadow="2"
     inkscape:window-width="801"
     inkscape:window-height="578"
     id="namedview8"
     showgrid="false"
     inkscape:zoom="7.375"
     inkscape:cx="16"
     inkscape:cy="16"
     inkscape:window-x="310"
     inkscape:window-y="202"
     inkscape:window-maximized="0"
     inkscape:current-layer="svg2" />
  <g
     id="g4"
     transform="translate(0,-8)" />
  <path
     d="m 12,3.3898305 c -4.7555042,0 -8.6101695,3.854665 -8.6101695,8.6101705 0,4.755503 3.8546653,8.610169 8.6101695,8.610169 4.755504,0 8.610169,-3.854666 8.610169,-8.610169 C 20.610169,7.2444955 16.755504,3.3898305 12,3.3898305 z M 8.7711864,12.000001 c 0,-1.783382 1.4454326,-3.2288145 3.2288136,-3.2288145 1.783381,0 3.228813,1.4454325 3.228813,3.2288145 0,1.783381 -1.445432,3.228813 -3.228813,3.228813 -1.783381,0 -3.2288136,-1.445432 -3.2288136,-3.228813 z M 18.96186,14.883869 v 0 l -2.983423,-1.236097 c 0.210411,-0.507462 0.327185,-1.063894 0.327185,-1.647771 0,-0.583878 -0.116237,-1.14031 -0.327185,-1.647772 L 18.96186,9.1161315 c 0.368623,0.8884625 0.572038,1.8619495 0.572038,2.8838695 0,1.021919 -0.203953,1.995406 -0.572038,2.883868 v 0 z M 14.883869,5.0381398 v 0 0 L 13.647772,8.0215635 C 13.140309,7.8111525 12.583877,7.6949155 12,7.6949155 c -0.583877,0 -1.140309,0.116237 -1.647771,0.326648 L 9.1161313,5.0381398 C 10.004593,4.6700551 10.978081,4.4661017 12,4.4661017 c 1.021381,0 1.995407,0.2039534 2.883869,0.5720381 z M 5.0381398,9.1161315 8.0215636,10.352229 c -0.2104111,0.507462 -0.3271865,1.063894 -0.3271865,1.647772 0,0.583877 0.1162373,1.140309 0.3266483,1.647771 L 5.0376017,14.883869 C 4.6689788,13.995407 4.4655636,13.02192 4.4655636,12.000001 c 0,-1.02192 0.2039533,-1.995407 0.5720381,-2.8838695 z m 4.0779915,9.8457295 1.2360977,-2.983424 c 0.507462,0.210411 1.063894,0.327186 1.647771,0.327186 0.583877,0 1.140309,-0.116237 1.647771,-0.327186 l 1.236098,2.983424 C 13.995407,19.329944 13.02192,19.533899 12,19.533899 c -1.021381,0 -1.995407,-0.203954 -2.8838687,-0.572038 z"
     id="path6"
     inkscape:connector-curvature="0"
     style="fill:#4d4d4d" />
</svg>
