<?xml version="1.0" encoding="UTF-8" standalone="no"?>
<!-- Generated by IcoMoon.io -->

<svg
   xmlns:dc="http://purl.org/dc/elements/1.1/"
   xmlns:cc="http://creativecommons.org/ns#"
   xmlns:rdf="http://www.w3.org/1999/02/22-rdf-syntax-ns#"
   xmlns:svg="http://www.w3.org/2000/svg"
   xmlns="http://www.w3.org/2000/svg"
   xmlns:sodipodi="http://sodipodi.sourceforge.net/DTD/sodipodi-0.dtd"
   xmlns:inkscape="http://www.inkscape.org/namespaces/inkscape"
   version="1.1"
   width="24"
   height="24"
   viewBox="0 0 24 24"
   id="svg2"
   inkscape:version="0.48.4 r9939"
   sodipodi:docname="ontology_tools.svg">
  <metadata
     id="metadata12">
    <rdf:RDF>
      <cc:Work
         rdf:about="">
        <dc:format>image/svg+xml</dc:format>
        <dc:type
           rdf:resource="http://purl.org/dc/dcmitype/StillImage" />
      </cc:Work>
    </rdf:RDF>
  </metadata>
  <defs
     id="defs10" />
  <sodipodi:namedview
     pagecolor="#ffffff"
     bordercolor="#666666"
     borderopacity="1"
     objecttolerance="10"
     gridtolerance="10"
     guidetolerance="10"
     inkscape:pageopacity="0"
     inkscape:pageshadow="2"
     inkscape:window-width="1680"
     inkscape:window-height="980"
     id="namedview8"
     showgrid="false"
     inkscape:zoom="10.429825"
     inkscape:cx="1.1426811"
     inkscape:cy="18.44194"
     inkscape:window-x="0"
     inkscape:window-y="30"
     inkscape:window-maximized="1"
     inkscape:current-layer="svg2" />
  <g
     id="g4"
     transform="translate(0,-8)" />
  <path
     d="m 19.363415,15.554752 h -0.25391 v -3.300841 c 0,-0.980096 -0.79728,-1.777376 -1.777376,-1.777376 H 13.015644 V 8.445248 h 0.253911 c 0.418953,0 0.761732,-0.34278 0.761732,-0.761732 V 5.144407 c 0,-0.418953 -0.342779,-0.7617326 -0.761732,-0.7617326 h -2.539109 c -0.418953,0 -0.7617329,0.3427796 -0.7617329,0.7617326 v 2.539109 c 0,0.418952 0.3427799,0.761732 0.7617329,0.761732 h 0.253911 v 2.031287 H 6.667872 c -0.980096,0 -1.7773761,0.79728 -1.7773761,1.777376 v 3.300841 H 4.6365851 c -0.418953,0 -0.7617326,0.34278 -0.7617326,0.761733 v 2.539108 c 0,0.418953 0.3427796,0.761733 0.7617326,0.761733 h 2.5391086 c 0.4189529,0 0.7617326,-0.34278 0.7617326,-0.761733 v -2.539108 c 0,-0.418953 -0.3427797,-0.761733 -0.7617326,-0.761733 H 6.9217828 v -3.04693 h 4.0625742 v 3.04693 h -0.253911 c -0.418953,0 -0.7617329,0.34278 -0.7617329,0.761733 v 2.539108 c 0,0.418953 0.3427799,0.761733 0.7617329,0.761733 h 2.539109 c 0.418953,0 0.761732,-0.34278 0.761732,-0.761733 v -2.539108 c 0,-0.418953 -0.342779,-0.761733 -0.761732,-0.761733 h -0.253911 v -3.04693 h 4.062574 v 3.04693 h -0.253911 c -0.418953,0 -0.761733,0.34278 -0.761733,0.761733 v 2.539108 c 0,0.418953 0.34278,0.761733 0.761733,0.761733 h 2.539108 c 0.418953,0 0.761733,-0.34278 0.761733,-0.761733 v -2.539108 c 0,-0.418953 -0.34278,-0.761733 -0.761733,-0.761733 z M 6.9217828,18.601683 H 4.8904959 v -2.031287 h 2.0312869 v 2.031287 z m 6.0938612,0 h -2.031287 v -2.031287 h 2.031287 v 2.031287 z M 10.984357,7.429605 V 5.3983178 h 2.031287 V 7.429605 h -2.031287 z m 8.125148,11.172078 h -2.031287 v -2.031287 h 2.031287 v 2.031287 z"
     id="path6"
     inkscape:connector-curvature="0"
     style="fill:#4d4d4d" />
</svg>
