<?xml version="1.0" encoding="UTF-8" standalone="no"?>
<!-- Generated by IcoMoon.io -->

<svg
   xmlns:dc="http://purl.org/dc/elements/1.1/"
   xmlns:cc="http://creativecommons.org/ns#"
   xmlns:rdf="http://www.w3.org/1999/02/22-rdf-syntax-ns#"
   xmlns:svg="http://www.w3.org/2000/svg"
   xmlns="http://www.w3.org/2000/svg"
   xmlns:sodipodi="http://sodipodi.sourceforge.net/DTD/sodipodi-0.dtd"
   xmlns:inkscape="http://www.inkscape.org/namespaces/inkscape"
   version="1.1"
   width="24"
   height="24"
   viewBox="0 0 24 24"
   id="svg2"
   inkscape:version="0.48.4 r9939"
   sodipodi:docname="tags.svg">
  <metadata
     id="metadata12">
    <rdf:RDF>
      <cc:Work
         rdf:about="">
        <dc:format>image/svg+xml</dc:format>
        <dc:type
           rdf:resource="http://purl.org/dc/dcmitype/StillImage" />
      </cc:Work>
    </rdf:RDF>
  </metadata>
  <defs
     id="defs10" />
  <sodipodi:namedview
     pagecolor="#ffffff"
     bordercolor="#666666"
     borderopacity="1"
     objecttolerance="10"
     gridtolerance="10"
     guidetolerance="10"
     inkscape:pageopacity="0"
     inkscape:pageshadow="2"
     inkscape:window-width="1680"
     inkscape:window-height="980"
     id="namedview8"
     showgrid="false"
     inkscape:zoom="7.375"
     inkscape:cx="-33.101695"
     inkscape:cy="16"
     inkscape:window-x="0"
     inkscape:window-y="30"
     inkscape:window-maximized="1"
     inkscape:current-layer="svg2" />
  <g
     id="g4"
     transform="translate(0,-8)" />
  <path
     d="m 19.097219,4.9030362 h -3.58003 c -0.843864,0 -2.022718,0.4884186 -2.619049,1.0847495 L 6.8852225,12.000703 c -0.5968423,0.596843 -0.5968423,1.573168 0,2.170011 l 4.4786185,4.478618 c 0.596842,0.596843 1.573168,0.596843 2.17001,0 l 6.012919,-6.012918 c 0.596841,-0.596841 1.084749,-1.775184 1.084749,-2.619048 V 6.4373352 c 0,-0.8438645 -0.690435,-1.534299 -1.5343,-1.534299 z m -2.045732,5.1143298 c -0.847444,0 -1.534298,-0.6868539 -1.534298,-1.534299 0,-0.8474439 0.686854,-1.5342988 1.534298,-1.5342988 0.847445,0 1.5343,0.6868549 1.5343,1.5342988 0,0.8474451 -0.686855,1.534299 -1.5343,1.534299 z M 4.6272458,13.447547 10.099068,18.919369 C 9.5196136,19.225717 8.7811046,19.135705 8.2947318,18.649332 L 3.816113,14.170714 c -0.5968422,-0.596843 -0.5968422,-1.573168 0,-2.170011 L 9.8290306,5.9877857 C 10.425873,5.3909433 11.604216,4.9030362 12.44808,4.9030362 L 4.6267343,12.724381 c -0.1989474,0.198948 -0.1989474,0.524218 0,0.723166 z"
     id="path6"
     inkscape:connector-curvature="0"
     style="fill:#4d4d4d;fill-opacity:1" />
</svg>
